<svg width="194" height="40" viewBox="0 0 194 40" fill="none" xmlns="http://www.w3.org/2000/svg">
<path fill-rule="evenodd" clip-rule="evenodd" d="M42.6394 39.9013L35.8243 33.0862L48.9599 19.9506L35.8243 6.81501L42.6394 -0.000102997L62.5901 19.9506L42.6394 39.9013ZM60.9013 19.9506L42.6394 1.68867L37.513 6.81501L50.6486 19.9506L37.513 33.0862L42.6394 38.2125L60.9013 19.9506Z" fill="#F22D36"/>
<path fill-rule="evenodd" clip-rule="evenodd" d="M54.5808 39.9013L47.7657 33.0862L60.9013 19.9506L47.7657 6.81501L54.5808 -0.000102997L74.5315 19.9506L54.5808 39.9013ZM72.8427 19.9506L54.5808 1.68867L49.4545 6.81501L62.59 19.9506L49.4545 33.0862L54.5808 38.2125L72.8427 19.9506Z" fill="#F22D36"/>
<path fill-rule="evenodd" clip-rule="evenodd" d="M66.5222 39.9013L59.7071 33.0862L72.8427 19.9506L59.7071 6.81501L66.5222 -0.000102997L86.4729 19.9506L66.5222 39.9013ZM84.7841 19.9506L66.5222 1.68867L61.3959 6.81501L74.5315 19.9506L61.3959 33.0862L66.5222 38.2125L84.7841 19.9506Z" fill="#F22D36"/>
<path fill-rule="evenodd" clip-rule="evenodd" d="M6.81492 39.9013L-0.000192642 33.0862L13.1354 19.9506L-0.000192642 6.81501L6.81492 -0.000102997L26.7656 19.9506L6.81492 39.9013ZM25.0768 19.9506L6.81492 1.68867L1.68859 6.81501L14.8242 19.9506L1.68859 33.0862L6.81492 38.2125L25.0768 19.9506Z" fill="#F22D36"/>
<path fill-rule="evenodd" clip-rule="evenodd" d="M18.7566 39.9013L11.9415 33.0862L25.0771 19.9506L11.9415 6.81501L18.7566 -0.000102997L38.7073 19.9506L18.7566 39.9013ZM37.0185 19.9506L18.7566 1.68867L13.6302 6.81501L26.7658 19.9506L13.6302 33.0862L18.7566 38.2125L37.0185 19.9506Z" fill="#F22D36"/>
<path fill-rule="evenodd" clip-rule="evenodd" d="M30.698 39.9013L23.8829 33.0862L37.0185 19.9506L23.8829 6.81501L30.698 -0.000102997L50.6487 19.9506L30.698 39.9013ZM48.9599 19.9506L30.698 1.68867L25.5716 6.81501L38.7072 19.9506L25.5716 33.0862L30.698 38.2125L48.9599 19.9506Z" fill="#F22D36"/>
<path fill-rule="evenodd" clip-rule="evenodd" d="M78.4638 39.9013L71.6487 33.0862L84.7843 19.9506L71.6487 6.81501L78.4638 -0.000102997L98.4146 19.9506L78.4638 39.9013ZM96.7258 19.9506L78.4638 1.68867L73.3375 6.81501L86.4731 19.9506L73.3375 33.0862L78.4638 38.2125L96.7258 19.9506Z" fill="#F22D36" fill-opacity="0.5"/>
<path fill-rule="evenodd" clip-rule="evenodd" d="M90.4053 39.9013L83.5901 33.0862L96.7257 19.9506L83.5901 6.81501L90.4053 -0.000102997L110.356 19.9506L90.4053 39.9013ZM108.667 19.9506L90.4053 1.68867L85.2789 6.81501L98.4145 19.9506L85.2789 33.0862L90.4053 38.2125L108.667 19.9506Z" fill="#F22D36" fill-opacity="0.45"/>
<path fill-rule="evenodd" clip-rule="evenodd" d="M102.347 39.9013L95.5315 33.0862L108.667 19.9506L95.5315 6.81501L102.347 -0.000102997L122.297 19.9506L102.347 39.9013ZM120.609 19.9506L102.347 1.68867L97.2203 6.81501L110.356 19.9506L97.2203 33.0862L102.347 38.2125L120.609 19.9506Z" fill="#F22D36" fill-opacity="0.4"/>
<path fill-rule="evenodd" clip-rule="evenodd" d="M114.288 39.9013L107.473 33.0862L120.609 19.9506L107.473 6.81501L114.288 -0.000102997L134.239 19.9506L114.288 39.9013ZM132.55 19.9506L114.288 1.68867L109.162 6.81501L122.297 19.9506L109.162 33.0862L114.288 38.2125L132.55 19.9506Z" fill="#F22D36" fill-opacity="0.35"/>
<path fill-rule="evenodd" clip-rule="evenodd" d="M126.229 39.9013L119.414 33.0862L132.55 19.9506L119.414 6.81501L126.229 -0.000102997L146.18 19.9506L126.229 39.9013ZM144.491 19.9506L126.229 1.68867L121.103 6.81501L134.239 19.9506L121.103 33.0862L126.229 38.2125L144.491 19.9506Z" fill="#F22D36" fill-opacity="0.3"/>
<path fill-rule="evenodd" clip-rule="evenodd" d="M138.171 39.9013L131.356 33.0862L144.491 19.9506L131.356 6.81501L138.171 -0.000102997L158.122 19.9506L138.171 39.9013ZM156.433 19.9506L138.171 1.68867L133.045 6.81501L146.18 19.9506L133.045 33.0862L138.171 38.2125L156.433 19.9506Z" fill="#F22D36" fill-opacity="0.25"/>
<path fill-rule="evenodd" clip-rule="evenodd" d="M150.113 39.9013L143.297 33.0862L156.433 19.9506L143.297 6.81501L150.113 -0.000102997L170.063 19.9506L150.113 39.9013ZM168.374 19.9506L150.113 1.68867L144.986 6.81501L158.122 19.9506L144.986 33.0862L150.113 38.2125L168.374 19.9506Z" fill="#F22D36" fill-opacity="0.2"/>
<path fill-rule="evenodd" clip-rule="evenodd" d="M162.054 39.9013L155.239 33.0862L168.374 19.9506L155.239 6.81501L162.054 -0.000102997L182.005 19.9506L162.054 39.9013ZM180.316 19.9506L162.054 1.68867L156.928 6.81501L170.063 19.9506L156.928 33.0862L162.054 38.2125L180.316 19.9506Z" fill="#F22D36" fill-opacity="0.15"/>
<path fill-rule="evenodd" clip-rule="evenodd" d="M173.995 39.9014L167.18 33.0863L180.316 19.9507L167.18 6.81507L173.995 -4.19617e-05L193.946 19.9507L173.995 39.9014ZM192.257 19.9507L173.995 1.68874L168.869 6.81507L182.005 19.9507L168.869 33.0863L173.995 38.2126L192.257 19.9507Z" fill="#F22D36" fill-opacity="0.1"/>
</svg>
