<svg width="194" height="40" viewBox="0 0 194 40" fill="none" xmlns="http://www.w3.org/2000/svg">
<path fill-rule="evenodd" clip-rule="evenodd" d="M151.307 3.05176e-05L158.122 6.81514L144.986 19.9507L158.122 33.0863L151.307 39.9014L131.356 19.9507L151.307 3.05176e-05ZM133.045 19.9507L151.307 38.2127L156.433 33.0863L143.297 19.9507L156.433 6.81514L151.307 1.68881L133.045 19.9507Z" fill="#F22D36"/>
<path fill-rule="evenodd" clip-rule="evenodd" d="M139.365 3.05176e-05L146.18 6.81514L133.045 19.9507L146.18 33.0863L139.365 39.9014L119.415 19.9507L139.365 3.05176e-05ZM121.103 19.9507L139.365 38.2127L144.492 33.0863L131.356 19.9507L144.492 6.81514L139.365 1.68881L121.103 19.9507Z" fill="#F22D36"/>
<path fill-rule="evenodd" clip-rule="evenodd" d="M127.424 3.05176e-05L134.239 6.81514L121.103 19.9507L134.239 33.0863L127.424 39.9014L107.473 19.9507L127.424 3.05176e-05ZM109.162 19.9507L127.424 38.2127L132.55 33.0863L119.415 19.9507L132.55 6.81514L127.424 1.68881L109.162 19.9507Z" fill="#F22D36"/>
<path fill-rule="evenodd" clip-rule="evenodd" d="M187.131 3.05176e-05L193.946 6.81514L180.81 19.9507L193.946 33.0863L187.131 39.9014L167.18 19.9507L187.131 3.05176e-05ZM168.869 19.9507L187.131 38.2127L192.257 33.0863L179.122 19.9507L192.257 6.81514L187.131 1.68881L168.869 19.9507Z" fill="#F22D36"/>
<path fill-rule="evenodd" clip-rule="evenodd" d="M175.189 3.05176e-05L182.005 6.81514L168.869 19.9507L182.005 33.0863L175.189 39.9014L155.239 19.9507L175.189 3.05176e-05ZM156.928 19.9507L175.189 38.2127L180.316 33.0863L167.18 19.9507L180.316 6.81514L175.189 1.68881L156.928 19.9507Z" fill="#F22D36"/>
<path fill-rule="evenodd" clip-rule="evenodd" d="M163.248 3.05176e-05L170.063 6.81514L156.928 19.9507L170.063 33.0863L163.248 39.9014L143.297 19.9507L163.248 3.05176e-05ZM144.986 19.9507L163.248 38.2127L168.374 33.0863L155.239 19.9507L168.374 6.81514L163.248 1.68881L144.986 19.9507Z" fill="#F22D36"/>
<path fill-rule="evenodd" clip-rule="evenodd" d="M115.482 3.05176e-05L122.297 6.81514L109.162 19.9507L122.297 33.0863L115.482 39.9014L95.5315 19.9507L115.482 3.05176e-05ZM97.2203 19.9507L115.482 38.2127L120.609 33.0863L107.473 19.9507L120.609 6.81514L115.482 1.68881L97.2203 19.9507Z" fill="#F22D36" fill-opacity="0.5"/>
<path fill-rule="evenodd" clip-rule="evenodd" d="M103.541 3.05176e-05L110.356 6.81514L97.2203 19.9507L110.356 33.0863L103.541 39.9014L83.5901 19.9507L103.541 3.05176e-05ZM85.2789 19.9507L103.541 38.2127L108.667 33.0863L95.5315 19.9507L108.667 6.81514L103.541 1.68881L85.2789 19.9507Z" fill="#F22D36" fill-opacity="0.45"/>
<path fill-rule="evenodd" clip-rule="evenodd" d="M91.5994 3.05176e-05L98.4145 6.81514L85.2789 19.9507L98.4145 33.0863L91.5994 39.9014L71.6487 19.9507L91.5994 3.05176e-05ZM73.3375 19.9507L91.5994 38.2127L96.7257 33.0863L83.5901 19.9507L96.7257 6.81514L91.5994 1.68881L73.3375 19.9507Z" fill="#F22D36" fill-opacity="0.4"/>
<path fill-rule="evenodd" clip-rule="evenodd" d="M79.658 3.05176e-05L86.4731 6.81514L73.3375 19.9507L86.4731 33.0863L79.658 39.9014L59.7073 19.9507L79.658 3.05176e-05ZM61.3961 19.9507L79.658 38.2127L84.7843 33.0863L71.6487 19.9507L84.7843 6.81514L79.658 1.68881L61.3961 19.9507Z" fill="#F22D36" fill-opacity="0.35"/>
<path fill-rule="evenodd" clip-rule="evenodd" d="M67.7166 3.05176e-05L74.5317 6.81514L61.3961 19.9507L74.5317 33.0863L67.7166 39.9014L47.7659 19.9507L67.7166 3.05176e-05ZM49.4546 19.9507L67.7166 38.2127L72.8429 33.0863L59.7073 19.9507L72.8429 6.81514L67.7166 1.68881L49.4546 19.9507Z" fill="#F22D36" fill-opacity="0.3"/>
<path fill-rule="evenodd" clip-rule="evenodd" d="M55.7752 3.05176e-05L62.5903 6.81514L49.4547 19.9507L62.5903 33.0863L55.7752 39.9014L35.8245 19.9507L55.7752 3.05176e-05ZM37.5132 19.9507L55.7752 38.2127L60.9015 33.0863L47.7659 19.9507L60.9015 6.81514L55.7752 1.68881L37.5132 19.9507Z" fill="#F22D36" fill-opacity="0.25"/>
<path fill-rule="evenodd" clip-rule="evenodd" d="M43.8335 3.05176e-05L50.6486 6.81514L37.513 19.9507L50.6486 33.0863L43.8335 39.9014L23.8828 19.9507L43.8335 3.05176e-05ZM25.5716 19.9507L43.8335 38.2127L48.9599 33.0863L35.8243 19.9507L48.9599 6.81514L43.8335 1.68881L25.5716 19.9507Z" fill="#F22D36" fill-opacity="0.2"/>
<path fill-rule="evenodd" clip-rule="evenodd" d="M31.8922 3.05176e-05L38.7073 6.81514L25.5718 19.9507L38.7073 33.0863L31.8922 39.9014L11.9415 19.9507L31.8922 3.05176e-05ZM13.6303 19.9507L31.8922 38.2127L37.0186 33.0863L23.883 19.9507L37.0186 6.81514L31.8922 1.68881L13.6303 19.9507Z" fill="#F22D36" fill-opacity="0.15"/>
<path fill-rule="evenodd" clip-rule="evenodd" d="M19.9507 0L26.7658 6.81511L13.6302 19.9507L26.7658 33.0863L19.9507 39.9014L0 19.9507L19.9507 0ZM1.68878 19.9507L19.9507 38.2126L25.077 33.0863L11.9414 19.9507L25.077 6.81511L19.9507 1.68878L1.68878 19.9507Z" fill="#F22D36" fill-opacity="0.1"/>
</svg>
