<svg width="36" height="36" viewBox="0 0 36 36" fill="none" xmlns="http://www.w3.org/2000/svg">
<path d="M2.5131e-05 17.9363C0.0103086 14.3752 1.07737 10.8972 3.06604 7.94304C5.0547 4.98888 7.87547 2.69146 11.171 1.34185C14.4665 -0.00775915 18.0884 -0.348834 21.578 0.361839C25.0675 1.07251 28.2675 2.80295 30.7727 5.33393C33.2779 7.8649 34.9755 11.0825 35.6504 14.5791C36.3253 18.0758 35.9472 21.694 34.5639 24.9755C33.1806 28.2571 30.8544 31.0541 27.8801 33.0125C24.9057 34.9708 21.417 36.0022 17.8559 35.976C13.101 35.9352 8.55516 34.0157 5.21006 30.6362C1.86496 27.2567 -0.00791291 22.6914 2.5131e-05 17.9363ZM15.1948 18.6714V29.0218H19.5614V18.5905H22.4651L22.8253 14.915H19.532C19.532 14.1799 19.532 13.5109 19.532 12.8567C19.5467 12.0848 19.8481 11.7834 20.5832 11.7834H22.7885V8.18134C21.5242 8.18134 20.3774 8.13723 19.2379 8.18134C18.2526 8.15037 17.2935 8.50201 16.5617 9.16254C15.8299 9.82308 15.3822 10.7412 15.3124 11.7246C15.1581 12.7537 15.2022 13.8123 15.1507 14.915H13.2321V18.5905L15.1948 18.6714Z" fill="white"/>
</svg>
