<svg width="37" height="36" viewBox="0 0 37 36" fill="none" xmlns="http://www.w3.org/2000/svg">
<path d="M18.4213 0.0239274C21.9822 0.0254192 25.4625 1.08372 28.4214 3.06477C31.3803 5.04583 33.6847 7.8605 35.0426 11.1523C36.4006 14.444 36.751 18.0648 36.0495 21.5558C35.348 25.0469 33.6262 28.2512 31.1021 30.7629C28.578 33.2747 25.3652 34.9807 21.8708 35.665C18.3763 36.3494 14.7573 35.9811 11.4723 34.607C8.18722 33.2329 5.38391 30.9147 3.41743 27.9461C1.45094 24.9775 0.409767 21.4921 0.42578 17.9312C0.447177 13.1732 2.35281 8.6175 5.72553 5.26132C9.09824 1.90515 13.6633 0.021934 18.4213 0.0239274ZM28.673 18.0489C28.673 16.5781 28.673 15.0484 28.673 13.5555C28.6952 12.7904 28.5613 12.0287 28.2793 11.317C27.9973 10.6053 27.5733 9.95856 27.033 9.41623C26.4928 8.87391 25.8476 8.44738 25.137 8.16271C24.4264 7.87803 23.6653 7.74117 22.9 7.76048C19.8995 7.709 16.9064 7.70164 13.9133 7.76048C13.1535 7.74023 12.3976 7.87495 11.6916 8.15643C10.9856 8.43791 10.3443 8.86024 9.80687 9.39767C9.26944 9.93509 8.84711 10.5764 8.56564 11.2824C8.28416 11.9884 8.14944 12.7443 8.16968 13.5041C8.11575 16.4996 8.11575 19.4952 8.16968 22.4908C8.14744 23.2512 8.28045 24.0081 8.56056 24.7153C8.84068 25.4225 9.26203 26.0652 9.79888 26.6041C10.3357 27.143 10.9768 27.5668 11.6829 27.8497C12.3891 28.1325 13.1455 28.2684 13.9059 28.2491C16.899 28.3079 19.8995 28.3006 22.8927 28.2491C25.8858 28.1976 28.1288 26.3664 28.548 23.2924L28.673 18.0489Z" fill="white"/>
<path d="M26.7757 22.5935C26.555 25.013 25.5181 26.197 23.0986 26.3294C19.9464 26.5169 16.7859 26.5169 13.6338 26.3294C11.3026 26.1897 10.2068 25.0939 10.0744 22.7626C9.89056 19.608 9.89056 16.4452 10.0744 13.2905C10.2141 10.9298 11.3246 9.82673 13.6853 9.69435C16.8153 9.50683 19.9538 9.50683 23.0839 9.69435C25.599 9.84879 26.7609 11.2828 26.8124 13.8347C26.8565 15.2394 26.8124 16.644 26.8124 18.0486L26.7757 22.5935ZM23.731 17.9972C23.7296 16.9435 23.4155 15.9139 22.8286 15.0388C22.2417 14.1637 21.4083 13.4825 20.434 13.0812C19.4597 12.68 18.3882 12.5769 17.3553 12.785C16.3223 12.9931 15.3743 13.503 14.6313 14.2501C13.8883 14.9972 13.3837 15.948 13.1814 16.9821C12.979 18.0162 13.088 19.087 13.4946 20.0591C13.9012 21.0312 14.5871 21.8608 15.4654 22.4428C16.3437 23.0249 17.375 23.3333 18.4287 23.3289C19.8341 23.3097 21.1761 22.7409 22.1672 21.7443C23.1583 20.7477 23.7196 19.4026 23.731 17.9972ZM25.1577 12.4816C25.1577 12.1539 25.0276 11.8396 24.7959 11.6079C24.5642 11.3762 24.2499 11.2461 23.9222 11.2461C23.5946 11.2461 23.2803 11.3762 23.0486 11.6079C22.8169 11.8396 22.6868 12.1539 22.6868 12.4816C22.6906 12.8158 22.8266 13.1348 23.065 13.3691C23.3034 13.6034 23.6248 13.7337 23.959 13.7318C24.2822 13.7203 24.5882 13.5833 24.812 13.3499C25.0358 13.1164 25.1599 12.805 25.1577 12.4816Z" fill="white"/>
<path d="M18.5095 14.5848C19.1873 14.6041 19.8441 14.8239 20.3968 15.2164C20.9496 15.609 21.3735 16.1568 21.6149 16.7903C21.8563 17.4239 21.9043 18.1148 21.7529 18.7757C21.6016 19.4366 21.2576 20.0377 20.7644 20.503C20.2713 20.9683 19.6513 21.2769 18.9827 21.3897C18.3142 21.5026 17.6272 21.4146 17.0087 21.1369C16.3902 20.8591 15.868 20.4042 15.5081 19.8296C15.1482 19.255 14.9668 18.5866 14.9869 17.9089C14.9964 17.4582 15.0954 17.014 15.2783 16.6019C15.4611 16.1899 15.7241 15.8184 16.052 15.509C16.3798 15.1997 16.766 14.9586 17.1879 14.7999C17.6098 14.6413 18.0591 14.5682 18.5095 14.5848Z" fill="white"/>
</svg>
