<svg width="239" height="154" viewBox="0 0 239 154" fill="none" xmlns="http://www.w3.org/2000/svg">
<path d="M149.437 58.1784C200.543 64.5666 226.247 79.8525 232.712 86.697C229.061 74.8332 197.729 59.6994 182.519 53.6155C168.83 46.3147 172.252 36.8846 175.674 33.0821C191.189 22.1309 206.474 33.0821 212.178 39.9265L230.43 26.2376C214.003 -2.05286 182.519 0.760973 168.83 5.70419C144.19 16.6553 145.635 45.25 149.437 58.1784Z" fill="white"/>
<path d="M135.748 66.1628C70.0416 67.988 17.4914 125.101 0 152.859L31.9408 154C44.7171 132.098 71.4866 111.412 83.2743 103.807L107.23 154H138.03L109.511 92.3999C162.442 84.1865 196.968 98.8641 207.615 107.23C212.178 110.88 211.038 115.595 209.897 117.496C204.421 125.71 194.687 127.002 190.504 126.622C177.728 126.622 164.647 115.975 159.704 110.652L139.171 126.622C150.122 148.524 176.435 154 188.223 154C231.115 152.175 239.556 124.341 238.415 110.652C237.503 99.7007 229.67 92.3999 225.867 90.1184C195.752 70.0413 153.24 65.7825 135.748 66.1628Z" fill="white"/>
<path d="M67.3039 0L0 142.593C20.9897 113.39 49.052 90.1187 60.4594 82.1335L67.3039 63.8816L74.1483 74.1483C82.3617 69.5853 93.541 65.4026 98.1039 63.8816L67.3039 0Z" fill="white"/>
</svg>
