<svg width="36" height="36" viewBox="0 0 36 36" fill="none" xmlns="http://www.w3.org/2000/svg">
<path d="M17.9994 35.98C14.4383 35.9819 10.9567 34.9268 7.99572 32.9484C5.0347 30.97 2.72744 28.1574 1.3662 24.8667C0.00495448 21.576 -0.349035 17.9554 0.349068 14.4633C1.04717 10.9713 2.76596 7.76504 5.28772 5.25062C7.80948 2.7362 11.0208 1.02677 14.5148 0.338858C18.0089 -0.349057 21.6285 0.0154903 24.9152 1.38633C28.2019 2.75716 31.0078 5.07261 32.9775 8.03939C34.9472 11.0062 35.9921 14.4908 35.9799 18.0519C35.9623 22.8104 34.0606 27.3681 30.6909 30.728C27.3212 34.0879 22.7579 35.9763 17.9994 35.98ZM28.563 10.7778H7.5358C7.68338 10.9587 7.75955 11.0682 7.85 11.1634C10.8301 14.1435 13.8102 17.122 16.7902 20.0989C17.2663 20.575 18.7325 20.575 19.2229 20.0989C20.4844 18.8421 21.7364 17.5806 22.998 16.3238L28.563 10.7778ZM21.7555 19.1563C21.4206 19.4907 21.1028 19.8419 20.8034 20.2084C20.4403 20.7836 19.9062 21.2306 19.2761 21.4867C18.646 21.7429 17.9515 21.7953 17.2901 21.6366C16.8911 21.5719 16.5146 21.4082 16.1952 21.1605C15.4811 20.5274 14.8432 19.8085 14.2386 19.1944L8.25464 25.1974H27.7728L21.7555 19.1563ZM13.0628 18.3375L6.66463 11.9013V24.7547L13.0628 18.3375ZM29.3437 24.6738V11.9013L22.9694 18.2947L29.3437 24.6738Z" fill="white"/>
</svg>
