<svg width="36" height="36" viewBox="0 0 36 36" fill="none" xmlns="http://www.w3.org/2000/svg">
<path d="M17.9898 35.98C14.4286 35.98 10.9474 34.923 7.98739 32.9428C5.02735 30.9627 2.72159 28.1487 1.3622 24.857C0.00281462 21.5654 -0.34904 17.9444 0.351209 14.4526C1.05146 10.9609 2.7723 7.75554 5.29576 5.24261C7.81921 2.72967 11.0317 1.02224 14.5264 0.336584C18.021 -0.34907 21.6406 0.0179111 24.9265 1.39104C28.2124 2.76417 31.0168 5.08166 32.9845 8.04995C34.9522 11.0182 35.9947 14.5038 35.9798 18.065C35.9584 22.8227 34.0537 27.3784 30.6824 30.7356C27.3112 34.0928 22.7476 35.9784 17.9898 35.98ZM22.6717 27.3976C24.8283 27.3976 26.166 26.3349 27.2974 24.9472C27.6162 24.5534 27.4224 24.1534 27.0974 23.8283C26.0722 22.7969 25.0533 21.7593 24.0157 20.7466C23.4969 20.2403 23.1531 20.2528 22.628 20.7466C22.1029 21.2405 21.5466 21.878 20.9965 22.4094C20.8635 22.5827 20.6963 22.7269 20.5052 22.8329C20.3142 22.9389 20.1033 23.0045 19.8859 23.0256C19.6684 23.0467 19.4489 23.0228 19.241 22.9555C19.0331 22.8883 18.8413 22.7789 18.6774 22.6344C16.6637 21.2202 14.8944 19.4867 13.4392 17.5024C13.2889 17.3369 13.174 17.1425 13.1014 16.931C13.0289 16.7196 13.0002 16.4955 13.0172 16.2726C13.0341 16.0497 13.0964 15.8326 13.2001 15.6346C13.3039 15.4365 13.4469 15.2617 13.6205 15.1209C14.1643 14.5708 14.7206 14.0332 15.2582 13.4831C15.7958 12.9331 15.8083 12.5455 15.2582 11.9829C14.5081 11.2141 13.7393 10.4577 12.9767 9.6951C11.5327 8.25115 11.5452 8.26365 10.095 9.73261C9.3444 10.4169 8.82819 11.32 8.61951 12.314C8.41083 13.308 8.52028 14.3425 8.93234 15.2709C10.7572 19.9134 14.2072 23.7345 18.6399 26.0224C19.8797 26.7429 21.2501 27.2104 22.6717 27.3976Z" fill="white"/>
</svg>
